<?xml version="1.0" standalone="no"?><!DOCTYPE svg PUBLIC "-//W3C//DTD SVG 1.1//EN" "http://www.w3.org/Graphics/SVG/1.1/DTD/svg11.dtd"><svg t="1608600326664" class="icon" viewBox="0 0 1024 1024" version="1.1" xmlns="http://www.w3.org/2000/svg" p-id="1633" xmlns:xlink="http://www.w3.org/1999/xlink" width="200" height="200"><defs><style type="text/css"></style></defs><path d="M225.28 675.75808a20.48 20.48 0 0 0-20.48 20.48v125.60384a20.48 20.48 0 0 0 20.48 20.48h573.44a20.48 20.48 0 0 0 20.48-20.48v-125.60384a20.48 20.48 0 1 0-40.96 0v105.12384H245.76v-105.12384a20.48 20.48 0 0 0-20.48-20.48z" fill="#231F20" p-id="1634"></path><path d="M512 186.96192a20.48 20.48 0 0 0-20.48 20.48v440.5248l-129.90464-125.48096a20.45952 20.45952 0 1 0-28.44672 29.45024l164.31104 158.74048 0.04096 0.04096 0.24576 0.22528c0.75776 0.73728 1.72032 1.04448 2.53952 1.6384 1.26976 0.9216 2.4576 1.9456 3.93216 2.53952a20.25472 20.25472 0 0 0 15.48288 0c1.37216-0.55296 2.4576-1.51552 3.64544-2.3552 0.94208-0.63488 2.00704-1.024 2.84672-1.8432l164.57728-159.0272a20.48 20.48 0 0 0-28.48768-29.45024L532.48 647.96672v-440.5248a20.48 20.48 0 0 0-20.48-20.48z" fill="#231F20" p-id="1635"></path></svg>