<?xml version="1.0" standalone="no"?><!DOCTYPE svg PUBLIC "-//W3C//DTD SVG 1.1//EN" "http://www.w3.org/Graphics/SVG/1.1/DTD/svg11.dtd"><svg t="1608600281188" class="icon" viewBox="0 0 1024 1024" version="1.1" xmlns="http://www.w3.org/2000/svg" p-id="1965" xmlns:xlink="http://www.w3.org/1999/xlink" width="200" height="200"><defs><style type="text/css"></style></defs><path d="M172.178 896.22c-14.263-14.263-11.264-40.449 6.583-58.295L837.925 178.76c17.846-17.847 44.032-20.846 58.294-6.583 14.263 14.19 11.264 40.448-6.582 58.295L230.4 889.637c-17.847 17.846-44.105 20.845-58.295 6.582" fill="#373D41" p-id="1966"></path><path d="M896.22 896.22c14.262-14.263 11.263-40.449-6.583-58.295L230.473 178.76c-17.847-17.847-44.105-20.846-58.295-6.583-14.263 14.19-11.264 40.448 6.583 58.295l659.164 659.164c17.846 17.846 44.032 20.845 58.294 6.582" fill="#373D41" p-id="1967"></path></svg>